<svg width="85" height="87" viewBox="0 0 85 87" fill="none" xmlns="http://www.w3.org/2000/svg">
<g clip-path="url(#clip0_22_54)">
<path d="M37.2938 38.8962C36.9396 37.7724 36.6208 36.6849 36.2667 35.5612C35.9125 34.4374 35.5938 33.3862 35.3104 32.3349C35.0271 31.3199 34.7792 30.3774 34.5312 29.5074H34.4604C34.1417 31.0662 33.7521 32.6249 33.2563 34.1837C32.725 35.9237 32.1938 37.7362 31.6271 39.5487C31.1313 41.3974 30.6 43.1012 30.0688 44.6237H39.0646C38.8521 43.8588 38.5688 42.9562 38.25 42.01C37.9313 41.0349 37.6125 39.9837 37.2938 38.8962ZM69.9479 1.0874H15.0521C6.72917 1.0874 0 7.9749 0 16.4937V70.5062C0 79.0249 6.72917 85.9124 15.0521 85.9124H69.9479C78.2708 85.9124 85 79.0249 85 70.5062V16.4937C85 7.9749 78.2708 1.0874 69.9479 1.0874ZM52.0625 61.0087H44.6569C44.4125 61.0449 44.1646 60.8637 44.0938 60.6099L41.1896 51.9824H28.0146L25.3229 60.5012C25.2521 60.8274 24.9688 61.0449 24.65 61.0123H17.9917C17.6021 61.0123 17.4958 60.7912 17.6021 60.3598L29.0062 26.7524C29.1125 26.3899 29.2188 25.9912 29.3604 25.5562C29.5021 24.7949 29.5729 23.9974 29.5729 23.1999C29.5375 23.0187 29.6792 22.8374 29.8563 22.8012H39.0292C39.3125 22.8012 39.4542 22.9099 39.4896 23.0912L52.4167 60.4287C52.5229 60.8238 52.4167 61.0087 52.0625 61.0087ZM64.1042 60.4649C64.1042 60.8637 63.966 61.0449 63.6473 61.0449H56.7021C56.3479 61.0449 56.1708 60.8238 56.1708 60.4649V32.5524C56.1708 32.1899 56.316 32.0449 56.6348 32.0449H63.6473C63.966 32.0449 64.1042 32.2262 64.1042 32.5524V60.4649ZM63.364 27.7312C62.5458 28.6012 61.3417 29.0724 60.1375 28.9999C58.9688 29.0362 57.8354 28.5649 56.9819 27.7312C56.1673 26.8249 55.7423 25.6287 55.7777 24.3962C55.7423 23.1637 56.2027 22.0037 57.0492 21.1699C57.9062 20.3362 59.0396 19.9012 60.2083 19.9012C61.5931 19.9012 62.6485 20.3362 63.4313 21.1699C64.2104 22.0399 64.6354 23.1999 64.6 24.3962C64.6354 25.6287 64.2104 26.8249 63.364 27.7312Z" fill="#283F47"/>
</g>
<defs>
<clipPath id="clip0_22_54">
<rect width="85" height="87" fill="white"/>
</clipPath>
</defs>
</svg>
