<svg width="69" height="69" viewBox="0 0 69 69" fill="none" xmlns="http://www.w3.org/2000/svg">
<path d="M34.4995 5.35034C18.4361 5.35034 5.36719 18.4268 5.36719 34.5C5.36719 50.5731 18.4361 63.6496 34.4995 63.6496C50.5635 63.6496 63.6329 50.5731 63.6329 34.5C63.6329 18.4268 50.5635 5.35034 34.4995 5.35034ZM34.4995 60.7746C20.0203 60.7746 8.24053 48.9876 8.24053 34.5C8.24053 20.0124 20.0203 8.22534 34.4995 8.22534C48.9798 8.22534 60.7595 20.0124 60.7595 34.5C60.7595 48.9876 48.9798 60.7746 34.4995 60.7746Z" fill="#283F47"/>
<path d="M31.2764 33.8493C32.1724 33.4434 32.8826 32.8349 33.406 32.0227C33.9248 31.227 34.1979 30.2961 34.1914 29.3461C34.1914 28.4495 33.9793 27.6397 33.555 26.9181C33.1302 26.196 32.5991 25.6177 31.9627 25.1835C31.3257 24.7494 30.604 24.4643 29.7976 24.3273C28.9911 24.1902 27.7676 24.1217 26.1255 24.1217H17.832V44.8797H24.8933C27.5631 44.86 29.2473 44.8131 29.9456 44.7374C31.0585 44.6147 31.9952 44.2865 32.7543 43.7536C33.5143 43.2203 34.1134 42.5068 34.552 41.6151C34.9907 40.7234 35.2095 39.8053 35.2095 38.8609C35.2095 37.662 34.87 36.6193 34.1909 35.7314C33.5124 34.8455 32.5397 34.2173 31.2764 33.8493ZM22.0204 27.5765H24.4264C26.3979 27.5765 27.5913 27.6 28.007 27.6469C28.7048 27.7322 29.2311 27.9756 29.5845 28.3757C29.9384 28.7778 30.1151 29.2991 30.1151 29.9407C30.1151 30.6111 29.9101 31.1516 29.4997 31.5622C29.0893 31.9729 28.5257 32.2206 27.8088 32.3059C27.4127 32.3533 26.3984 32.3763 24.7659 32.3763H22.0204V27.5765ZM30.2928 40.4258C29.901 40.8647 29.3939 41.1407 28.7713 41.2543C28.3652 41.3396 27.4075 41.3818 25.8985 41.3818H22.0204V35.8316H25.4028C27.3083 35.8316 28.5463 35.9298 29.1176 36.1282C29.6879 36.3266 30.1247 36.6428 30.4264 37.0769C30.7281 37.5111 30.8789 38.0401 30.8789 38.6635C30.8794 39.3995 30.684 39.9869 30.2928 40.4258ZM48.9762 31.2373C47.6171 29.7605 45.7633 29.0217 43.4129 29.0217C41.3207 29.0217 39.5904 29.7275 38.2218 31.1386C36.8531 32.5498 36.1697 34.5009 36.1697 36.9931C36.1697 39.0794 36.6898 40.8068 37.7319 42.1757C39.0498 43.8845 41.0831 44.7383 43.8291 44.7383C45.5651 44.7383 47.0104 44.3583 48.1654 43.5984C49.3205 42.8394 50.7993 41.2692 50.8276 39.8791L46.5372 39.9045C46.3088 40.6597 45.9712 40.9151 45.5263 41.2548C45.079 41.5945 44.5292 41.7646 43.8746 41.7646C42.913 41.7646 42.1094 41.4369 41.4653 40.7809C40.8207 40.124 40.484 39.2059 40.4543 38.0266H50.9253C50.9832 34.9782 50.3343 32.7151 48.9762 31.2373ZM40.5271 35.591C40.5171 34.5062 40.8097 33.6471 41.4045 33.0146C41.9992 32.3825 42.753 32.0663 43.6663 32.0663C44.5182 32.0663 45.2423 32.3658 45.8371 32.9652C46.4319 33.5646 46.7446 34.4401 46.7743 35.591H40.5271ZM39.4132 25.0091H47.7828V27.0346H39.4132V25.0091Z" fill="#283F47"/>
</svg>
