<svg width="86" height="87" viewBox="0 0 86 87" fill="none" xmlns="http://www.w3.org/2000/svg">
<g clip-path="url(#clip0_22_56)">
<path d="M43 0C19.2452 0 0 19.469 0 43.5C0 67.531 19.2452 87 43 87C66.7548 87 86 67.531 86 43.5C86 19.469 66.7548 0 43 0ZM24.9427 27.84C27.6436 27.84 29.7453 29.8328 29.9818 32.1873C30.2371 34.3106 29.3663 36.1675 27.0443 37.2849C25.8107 37.9075 25.3216 37.9075 25.069 37.5378C24.9427 37.2849 25.069 37.0457 25.3189 36.7874C27.5334 34.9359 27.5334 33.4352 27.2781 31.3254C27.1518 29.9525 26.1736 29.0852 25.1926 29.0852C20.8819 29.0852 14.7517 38.7721 15.6036 45.8653C15.9826 48.5977 17.5789 51.8275 21.0082 51.8275C22.1154 51.8275 23.349 51.4578 24.4509 50.9657C26.2434 50.0005 27.3211 49.2665 28.3854 48.0621C28.1193 44.8458 30.9036 40.6426 35.0181 40.6426C36.8671 40.6426 38.3372 41.393 38.4608 42.7659C38.7 44.6228 37.1036 44.8757 36.6145 44.8757C36.1227 44.8757 35.2573 44.7479 35.2573 44.2531C35.1471 43.7556 36.3619 44.0003 36.249 42.8801C36.1227 42.1297 35.3809 41.8905 34.6553 41.8905C32.0646 41.8905 30.5945 45.501 30.96 47.7222C31.0863 48.7254 31.5728 49.7205 32.5698 49.7205C33.2981 49.7205 34.4054 48.6004 34.7655 46.9882C35.0154 45.868 35.9991 45.1177 36.8644 45.1177C37.2299 45.1177 37.4664 45.2454 37.5928 45.7402V46.2378C37.4826 46.7353 37.1009 48.2361 37.2299 48.6004C37.2299 48.8587 37.3563 49.223 37.8427 49.223C38.1652 49.223 39.3988 48.5705 40.6296 47.5509C41.0354 45.4113 41.5246 42.8502 41.5246 42.6382C41.6509 41.76 42.0164 40.8954 43.7364 40.8954C44.1126 40.8954 44.3518 41.0232 44.4781 41.518V42.0156L43.9863 44.2531C45.5854 42.1433 47.9208 40.6562 49.3909 40.6562C50.0063 40.6562 50.4981 41.0232 50.4981 41.6458C50.4981 42.0156 50.4981 42.6382 50.2428 43.2635C49.7564 44.6228 49.1383 46.7462 48.7728 48.6004C48.7728 49.0979 48.8991 49.5927 49.5145 49.5927C50.1299 49.5927 51.9655 48.8559 53.4356 46.8604L53.4651 46.8468C53.4651 46.6048 53.4356 46.3656 53.4356 46.1263C53.4356 44.6256 53.5619 43.394 53.8145 42.5158C54.0644 41.5235 55.2846 40.6589 56.0263 40.6589C56.3891 40.6589 56.7681 40.8982 56.7681 41.2679C56.7681 41.3957 56.7681 41.6485 56.6418 41.7654C56.1499 43.394 55.771 44.8784 55.771 46.3656C55.771 47.2437 55.9 48.4753 56.1499 49.2257C56.1499 49.3535 56.2601 49.4785 56.3864 49.4785C56.6418 49.4785 58.3618 47.8663 59.5792 45.7402C58.4719 45.0035 57.8565 43.7583 57.8565 42.2711C57.8565 39.653 59.469 38.2909 60.9391 38.2909C62.1726 38.2909 63.1509 39.1582 63.1509 40.8982C63.1509 42.0183 62.7854 43.2662 62.1726 44.3809H62.5354C63.3202 44.4108 64.0915 44.0845 64.6209 43.519C64.7473 43.3206 64.9139 43.1792 65.1128 43.0949C66.3167 41.5507 68.0798 40.4061 70.1653 40.4061C71.8852 40.4061 73.4682 41.1564 73.5945 42.5158C73.8444 44.3836 72.2373 44.7533 71.7455 44.7533C71.2591 44.7533 70.391 44.6256 70.391 44.1308C70.391 43.6359 71.4956 43.8779 71.3827 42.7714C71.2564 42.021 70.5146 41.7682 69.7729 41.7682C67.3219 41.7682 65.7282 44.9953 66.0883 47.6162C66.2146 48.6058 66.7038 49.7259 67.6874 49.7259C68.4291 49.7259 69.5337 48.6058 70.0228 46.9936C70.2593 46.004 71.2564 45.1231 72.1083 45.1231C72.4846 45.1231 72.7237 45.2509 72.8501 45.7457C72.8501 46.004 72.8501 46.4961 72.3582 48.1137C71.7428 49.2311 71.7428 49.8537 71.8718 50.3512C71.982 51.3409 72.4738 52.0912 72.9764 52.461C73.0866 52.5888 73.2156 52.828 73.2156 52.828C73.2156 53.0863 73.0866 53.3392 72.7237 53.3392C72.5974 53.3392 72.4846 53.3392 72.3582 53.2114C70.5119 52.461 69.7702 51.2131 69.531 49.9679C68.7892 50.8461 67.9373 51.3409 66.9429 51.3409C65.3439 51.3409 63.7636 49.8537 63.5137 47.9832C63.4411 47.1921 63.5244 46.3846 63.7798 45.6342C63.0514 46.1018 62.2667 46.371 61.5411 46.371H60.9391C59.3292 48.7336 57.6066 50.3512 56.3891 51.088C55.9699 51.3137 55.5076 51.4442 55.0319 51.4687C54.7954 51.4687 54.4192 51.3409 54.3036 51.088C53.9569 50.5361 53.7446 49.6716 53.6049 48.6819C51.8822 50.5769 49.5011 51.5964 48.3992 51.5964C47.1656 51.5964 46.44 50.8461 46.3137 49.6036V48.2442C46.6765 45.5119 47.6709 43.8833 47.6709 43.3858C47.6574 43.258 47.5553 43.1438 47.4156 43.133C46.5636 43.133 43.7364 46.1209 43.2446 48.1164L42.8683 49.7287C42.6291 50.8461 41.5246 51.5964 40.7828 51.5964C40.4173 51.5964 40.1674 51.4687 40.0545 50.9766V50.479L40.2077 49.6308C38.6516 50.7482 37.0983 51.4687 36.3565 51.4687C35.2519 51.4687 34.6365 50.8461 34.5263 49.9679C33.7846 50.9766 32.9272 51.4687 31.8254 51.4687C30.5488 51.4687 29.3206 50.5905 28.7321 49.3181C27.8479 50.3213 26.8535 51.3273 25.6791 52.0913C23.9591 53.2114 21.9999 54.0732 19.6591 54.0732C17.5736 54.0732 15.7273 52.9531 14.7463 51.9635C13.2628 50.5905 12.4109 48.4807 12.2846 46.4961C11.5563 40.4088 15.2381 32.5761 20.8765 29.0933C22.2337 28.343 23.5936 27.8509 24.9373 27.8509L24.9427 27.84ZM59.9501 39.778C59.5872 39.778 59.3373 40.4006 59.3373 41.0069C59.3373 42.0156 59.8237 43.1302 60.4419 43.7556C60.6972 43.0786 60.8074 42.3554 60.8208 41.6322C60.8208 40.4033 60.329 39.7808 59.9501 39.7808V39.778Z" fill="#283F47"/>
</g>
<defs>
<clipPath id="clip0_22_56">
<rect width="86" height="87" fill="white"/>
</clipPath>
</defs>
</svg>
