<svg width="64" height="64" viewBox="0 0 64 64" fill="none" xmlns="http://www.w3.org/2000/svg">
<path d="M55.4994 18.8L53.5994 16.9L35.9994 34.5C33.7994 36.7 30.0994 36.7 27.8994 34.5L10.2994 17L8.39941 18.9L21.4994 32L8.39941 45.1L10.2994 47L23.3994 33.9L25.9994 36.5C27.5994 38.1 29.6994 39 31.8994 39C34.0994 39 36.1994 38.1 37.7994 36.5L40.3994 33.9L53.4994 47L55.3994 45.1L42.2994 32L55.4994 18.8Z" fill="#283F47"/>
<path d="M51.7996 50.4001H12.2996C9.99961 50.4001 8.09961 48.5 8.09961 46.2001V18C8.09961 15.7 9.99961 13.8 12.2996 13.8H51.7996C54.0996 13.8 55.9996 15.7 55.9996 18V46.2001C55.9996 48.5 54.0996 50.4001 51.7996 50.4001ZM12.1996 16.5C11.3996 16.5 10.7996 17.1 10.7996 17.9V46.1C10.7996 46.9 11.3996 47.5 12.1996 47.5H51.6996C52.4996 47.5 53.0996 46.9 53.0996 46.1V17.9C53.0996 17.1 52.4996 16.5 51.6996 16.5H12.1996Z" fill="#283F47"/>
</svg>
