<svg width="84" height="87" viewBox="0 0 84 87" fill="none" xmlns="http://www.w3.org/2000/svg">
<g clip-path="url(#clip0_22_62)">
<path d="M83.8435 70.988C83.936 68.9539 83.9911 66.9152 83.9911 64.8788C84.0022 49.389 83.9912 33.8969 84 18.4071C84 14.0074 83.0786 9.90731 80.3101 6.43385C77.2815 2.63574 73.3932 0.442696 68.5902 0.174808C66.095 0.0340535 63.591 0.0113512 61.0914 0.00908095C46.5148 -0.00454047 31.9404 0 17.3638 0.00454047C13.7246 0.00454047 10.2375 0.649288 7.14938 2.77877C2.63952 5.88899 0.104655 10.2138 -0.32517 15.8145C-0.351621 16.1505 -0.430971 16.4819 -0.488281 16.8134V70.1753C-0.413337 70.8473 -0.342802 71.5193 -0.261246 72.189C0.710821 80.153 7.17804 86.3689 14.9612 86.8343C15.2588 86.8524 15.5519 86.941 15.8495 86.9977H67.671C68.3235 86.9205 68.9759 86.8479 69.6284 86.7639C77.4005 85.7559 83.4754 79.0269 83.8435 70.9857V70.988ZM40.9403 32.7868C40.9248 33.7993 40.7639 33.9741 39.7742 33.9786C36.9969 33.99 34.2218 33.9832 31.4444 33.9854C29.9367 33.9854 29.8883 34.0399 29.886 35.6268C29.886 36.9004 29.9103 38.1763 29.8794 39.4476C29.8596 40.2853 30.2079 40.6123 31.0124 40.6054C33.6509 40.5827 36.2915 40.5941 38.93 40.6032C40.1379 40.6054 40.268 40.7394 40.2768 41.9562C40.2856 42.9461 40.2856 43.9382 40.2768 44.928C40.2658 46.0563 40.1203 46.2152 39.038 46.2197C36.426 46.2288 33.814 46.2197 31.202 46.2266C30.0095 46.2288 29.8883 46.356 29.886 47.6023C29.8794 50.7171 29.886 53.8296 29.8794 56.9443C29.8772 58.1271 29.7362 58.2724 28.601 58.2792C27.2255 58.2883 25.8523 58.2883 24.4769 58.2792C23.2711 58.2702 23.1146 58.109 23.1146 56.8331C23.108 52.3312 23.1124 47.8293 23.1124 43.3297C23.1124 38.8301 23.1102 34.326 23.1124 29.8264C23.1124 28.4778 23.2249 28.3621 24.5165 28.3621C29.5201 28.3575 34.5238 28.3575 39.5274 28.3621C40.8279 28.3621 40.9359 28.4778 40.9425 29.815C40.9469 30.8048 40.9535 31.7969 40.9381 32.7868H40.9403ZM57.1745 57.303C55.2942 58.3996 53.2531 58.7197 51.1018 58.6198C49.1466 58.7333 47.2444 58.3473 45.3972 57.6277C44.467 57.2644 44.3458 57.0374 44.5795 56.0226C44.8087 55.0305 45.0754 54.0498 45.2914 53.0554C45.4413 52.3675 45.7433 52.3358 46.3605 52.5469C47.7337 53.0214 49.129 53.4504 50.5463 53.7388C51.2142 53.875 51.9791 53.7433 52.6514 53.5549C54.0004 53.1735 54.2715 51.75 53.198 50.8124C52.8718 50.5264 52.453 50.3402 52.0562 50.1586C50.7778 49.5751 49.4332 49.1188 48.2142 48.4241C46.0166 47.171 44.672 45.3139 44.8991 42.5647C45.1239 39.8426 46.5655 37.9515 48.9064 36.8868C52.1422 35.4134 55.4463 35.7199 58.7152 36.8959C59.209 37.073 59.4007 37.4317 59.2707 37.9606C59.0106 39.0322 58.7461 40.1015 58.497 41.1753C58.3471 41.8132 58.0187 41.8268 57.4522 41.6702C56.1892 41.3183 54.9063 40.9573 53.6124 40.8279C52.3604 40.7053 51.5823 41.2638 51.406 42.0402C51.2054 42.9143 51.5713 43.4773 52.8542 44.0971C53.6477 44.4807 54.4985 44.7395 55.2964 45.1209C56.1407 45.5228 57.0047 45.9201 57.7652 46.4604C61.4418 49.0712 61.1024 55.0169 57.1722 57.3053L57.1745 57.303Z" fill="#283F47"/>
</g>
<defs>
<clipPath id="clip0_22_62">
<rect width="84" height="87" fill="white"/>
</clipPath>
</defs>
</svg>
