<svg width="52" height="52" viewBox="0 0 52 52" fill="none" xmlns="http://www.w3.org/2000/svg">
<g clip-path="url(#clip0_22_77)">
<path d="M17.3347 26C17.3347 21.2137 21.2137 17.3326 26 17.3326C30.7863 17.3326 34.6674 21.2137 34.6674 26C34.6674 30.7863 30.7863 34.6674 26 34.6674C21.2137 34.6674 17.3347 30.7863 17.3347 26ZM12.6493 26C12.6493 33.3737 18.6263 39.3507 26 39.3507C33.3737 39.3507 39.3507 33.3737 39.3507 26C39.3507 18.6263 33.3737 12.6493 26 12.6493C18.6263 12.6493 12.6493 18.6263 12.6493 26ZM36.7591 12.12C36.7591 13.8422 38.1557 15.2409 39.88 15.2409C41.6021 15.2409 43.0008 13.8422 43.0008 12.12C43.0008 10.3979 41.6042 9.00129 39.88 9.00129C38.1557 9.00129 36.7591 10.3979 36.7591 12.12ZM15.495 47.1633C12.9601 47.0478 11.5824 46.6257 10.6667 46.2687C9.45283 45.7961 8.58756 45.2333 7.67609 44.3239C6.76672 43.4145 6.20178 42.5493 5.73134 41.3354C5.37431 40.4197 4.95218 39.042 4.83667 36.5071C4.71066 33.7664 4.68546 32.9431 4.68546 26C4.68546 19.0569 4.71276 18.2357 4.83667 15.4929C4.95218 12.958 5.37641 11.5824 5.73134 10.6646C6.20388 9.45073 6.76672 8.58546 7.67609 7.67399C8.58546 6.76462 9.45073 6.19968 10.6667 5.72924C11.5824 5.37221 12.9601 4.95008 15.495 4.83457C18.2357 4.70856 19.059 4.68336 26 4.68336C32.9431 4.68336 33.7643 4.71066 36.5071 4.83457C39.042 4.95008 40.4176 5.37431 41.3354 5.72924C42.5493 6.19968 43.4145 6.76462 44.326 7.67399C45.2354 8.58336 45.7982 9.45073 46.2708 10.6646C46.6278 11.5803 47.0499 12.958 47.1654 15.4929C47.2914 18.2357 47.3166 19.0569 47.3166 26C47.3166 32.941 47.2914 33.7643 47.1654 36.5071C47.0499 39.042 46.6257 40.4197 46.2708 41.3354C45.7982 42.5493 45.2354 43.4145 44.326 44.3239C43.4166 45.2333 42.5493 45.7961 41.3354 46.2687C40.4197 46.6257 39.042 47.0478 36.5071 47.1633C33.7664 47.2893 32.9431 47.3145 26 47.3145C19.059 47.3145 18.2357 47.2893 15.495 47.1633ZM15.2808 0.157512C12.5128 0.283522 10.6226 0.722456 8.96979 1.3651C7.26026 2.02876 5.81115 2.91922 4.36414 4.36414C2.91922 5.80905 2.02876 7.25816 1.36511 8.96979C0.722456 10.6226 0.283522 12.5128 0.157512 15.2808C0.0294023 18.053 0 18.9393 0 26C0 33.0607 0.0294023 33.947 0.157512 36.7192C0.283522 39.4872 0.722456 41.3774 1.36511 43.0302C2.02876 44.7397 2.91712 46.1909 4.36414 47.6359C5.80905 49.0808 7.25816 49.9691 8.96979 50.6349C10.6247 51.2775 12.5128 51.7165 15.2808 51.8425C18.0551 51.9685 18.9393 52 26 52C33.0628 52 33.947 51.9706 36.7192 51.8425C39.4872 51.7165 41.3774 51.2775 43.0302 50.6349C44.7397 49.9691 46.1889 49.0808 47.6359 47.6359C49.0808 46.1909 49.9691 44.7397 50.6349 43.0302C51.2775 41.3774 51.7186 39.4872 51.8425 36.7192C51.9685 33.9449 51.9979 33.0607 51.9979 26C51.9979 18.9393 51.9685 18.053 51.8425 15.2808C51.7165 12.5128 51.2775 10.6226 50.6349 8.96979C49.9691 7.26026 49.0808 5.81115 47.6359 4.36414C46.191 2.91922 44.7397 2.02876 43.0323 1.3651C41.3774 0.722456 39.4872 0.281422 36.7213 0.157512C33.9491 0.0315024 33.0628 0 26.0021 0C18.9393 0 18.0551 0.0294023 15.2808 0.157512Z" fill="#283F47"/>
</g>
<defs>
<clipPath id="clip0_22_77">
<rect width="52" height="52" fill="white"/>
</clipPath>
</defs>
</svg>
