<svg width="87" height="87" viewBox="0 0 87 87" fill="none" xmlns="http://www.w3.org/2000/svg">
<g clip-path="url(#clip0_22_58)">
<path d="M72.4433 0.0849609H14.5567C6.59722 0.0849609 0.0849609 6.59722 0.0849609 14.5567V72.4435C0.0849609 80.403 6.59722 86.9152 14.5567 86.9152H72.4435C80.4029 86.9152 86.9152 80.403 86.9152 72.4435V14.5567C86.915 6.59722 80.4028 0.0849609 72.4433 0.0849609ZM44.7005 64.2288H20.0968V22.7712H27.6623V57.8932H44.7005V64.2288ZM66.9033 40.9165C66.2879 40.7935 65.6116 40.6706 64.6887 40.6706C61.0597 40.6706 58.5991 43.0081 57.9223 46.3909C57.7993 47.0677 57.6764 47.867 57.6764 48.7283V64.2289H50.1113V43.9302C50.1113 39.8706 50.0491 36.9799 49.8654 34.2736H56.4468L56.6927 39.9937H56.9386C58.4149 35.7497 61.9202 33.5966 65.1193 33.5966C65.8578 33.5966 66.288 33.6581 66.9035 33.7817L66.9033 40.9165Z" fill="#283F47"/>
</g>
<defs>
<clipPath id="clip0_22_58">
<rect width="87" height="87" fill="white"/>
</clipPath>
</defs>
</svg>
