<svg width="86" height="88" viewBox="0 0 86 88" fill="none" xmlns="http://www.w3.org/2000/svg">
<g clip-path="url(#clip0_22_52)">
<path d="M35.2958 30.8734C33.97 30.3234 32.5367 30.1034 31.0675 30.1401C30.1358 30.1401 29.3117 30.1401 28.6308 30.1768C27.9142 30.1401 27.4125 30.1768 27.1617 30.2134V42.5334C27.6633 42.5701 28.1292 42.6068 28.5592 42.6068H30.4583C31.8558 42.6068 33.2533 42.3868 34.5792 41.9468C35.7258 41.6168 36.7292 40.9201 37.5175 40.0034C38.27 39.0868 38.6283 37.8401 38.6283 36.2268C38.6642 35.0901 38.3775 33.9534 37.8042 32.9634C37.195 32.0101 36.335 31.2768 35.2958 30.8734ZM70.7708 1.1001H15.2292C6.80833 1.1001 0 8.06676 0 16.6834V71.3131C0 79.9298 6.80833 86.8964 15.2292 86.8964H70.7708C79.1917 86.8964 86 79.9298 86 71.3131V16.6834C86 8.06676 79.1917 1.1001 70.7708 1.1001ZM44.2864 43.8168C42.8567 45.8701 40.85 47.4101 38.5208 48.2901C36.0842 49.2068 33.3967 49.5368 30.4583 49.5368C29.5983 49.5368 29.025 49.5368 28.6667 49.5001C28.3083 49.4634 27.8067 49.4634 27.1258 49.4634V61.2298C27.1617 61.4864 26.9825 61.7101 26.7317 61.7468H19.78C19.4933 61.7468 19.35 61.5964 19.35 61.2664V23.5401C19.35 23.2834 19.4575 23.1368 19.7083 23.1368C20.3175 23.1368 20.8908 23.1368 21.715 23.1001C22.575 23.0634 23.4708 23.0634 24.4383 23.0268C25.4058 22.9901 26.445 22.9901 27.5558 22.9534C28.6667 22.9168 29.7417 22.9168 30.8167 22.9168C33.755 22.9168 36.1917 23.2834 38.1983 24.0534C39.99 24.6768 41.6383 25.7034 43 27.0601C44.1467 28.2334 45.0425 29.6634 45.6158 31.2401C46.1497 32.7801 46.4364 34.3568 46.4364 36.0068C46.44 39.1601 45.7233 41.7634 44.2864 43.8168ZM69.6958 58.0801C68.6925 59.5468 67.2914 60.6798 65.6825 61.3471C63.9267 62.1134 61.7767 62.5131 59.1931 62.5131C57.5483 62.5131 55.9322 62.3701 54.3233 62.0401C53.0692 61.8164 51.815 61.4168 50.6683 60.8668C50.4175 60.7238 50.2347 60.4671 50.2706 60.1738V53.7938C50.2706 53.6874 50.31 53.5371 50.4175 53.4638C50.5214 53.3904 50.6325 53.4271 50.74 53.5004C52.1375 54.3438 53.6067 54.9341 55.1833 55.2971C56.5414 55.6638 57.9747 55.8471 59.4117 55.8471C60.7733 55.8471 61.7408 55.6601 62.3858 55.3301C62.9592 55.0734 63.3533 54.4501 63.3533 53.7901C63.3533 53.2731 63.0667 52.8001 62.4933 52.3234C61.92 51.8504 60.7411 51.3004 58.9852 50.5964C57.1577 49.9364 55.4772 49.0564 53.8969 47.9601C52.7861 47.1498 51.858 46.0901 51.17 44.8434C50.6002 43.6701 50.3136 42.3868 50.3494 41.0998C50.3494 39.5231 50.7794 38.0198 51.5713 36.6631C52.4672 35.1964 53.7894 34.0231 55.3302 33.2898C57.0108 32.4134 59.125 32.0101 61.6692 32.0101C63.1383 32.0101 64.6433 32.1201 66.1125 32.3401C67.1875 32.4868 68.2267 32.7801 69.1942 33.1834C69.3339 33.2201 69.4808 33.3668 69.5525 33.5134C69.5883 33.6601 69.6242 33.8068 69.6242 33.9534V39.9301C69.6242 40.0768 69.5525 40.2234 69.445 40.2968C69.1225 40.3701 68.9433 40.3701 68.8 40.2968C67.725 39.7101 66.5783 39.3068 65.36 39.0501C64.0342 38.7568 62.7083 38.5734 61.3467 38.5734C60.63 38.5368 59.8775 38.6468 59.1931 38.8301C58.7308 38.9401 58.3331 39.1968 58.0822 39.5634C57.9031 39.8568 57.7956 40.2234 57.7956 40.5534C57.7956 40.8834 57.9389 41.2134 58.1575 41.5068C58.48 41.9101 58.9064 42.2401 59.3758 42.4968C60.1964 42.9368 61.06 43.3401 61.9164 43.7068C63.855 44.3668 65.7183 45.2834 67.4383 46.3834C68.6208 47.1498 69.5883 48.1801 70.2656 49.4268C70.8389 50.5928 71.1256 51.8834 71.0898 53.1998C71.1292 54.9268 70.6275 56.6464 69.6958 58.0801Z" fill="#283F47"/>
</g>
<defs>
<clipPath id="clip0_22_52">
<rect width="86" height="88" fill="white"/>
</clipPath>
</defs>
</svg>
